<svg width="150" height="226" viewBox="0 0 150 226" fill="none" xmlns="http://www.w3.org/2000/svg">
<circle cx="37.2212" cy="189.113" r="36.3213" fill="black"/>
<path fill-rule="evenodd" clip-rule="evenodd" d="M40.8559 148.98C39.6604 149.099 38.4479 149.16 37.2212 149.16C17.1615 149.16 0.899902 132.898 0.899902 112.839C0.899902 92.7791 17.1615 76.5175 37.2212 76.5175C38.4479 76.5175 39.6604 76.5783 40.8559 76.6971V76.5175H113.498C113.499 76.5175 113.5 76.5175 113.501 76.5175C133.561 76.5175 149.822 92.7791 149.822 112.839C149.822 132.898 133.561 149.16 113.501 149.16C113.5 149.16 113.499 149.16 113.498 149.16H40.8559V148.98Z" fill="black"/>
<path fill-rule="evenodd" clip-rule="evenodd" d="M149.695 170.715C149.695 160.685 141.564 152.555 131.534 152.555C121.504 152.555 113.374 160.685 113.374 170.715C113.374 180.745 105.243 188.876 95.2129 188.876C85.1831 188.876 77.0522 197.007 77.0522 207.037C77.0522 217.067 85.1831 225.197 95.213 225.197H113.374C133.433 225.197 149.695 208.936 149.695 188.876V170.715Z" fill="black"/>
<path fill-rule="evenodd" clip-rule="evenodd" d="M37.2212 72.8854C57.2809 72.8854 73.5425 56.6238 73.5425 36.5641C73.5425 16.5044 57.2809 0.242828 37.2212 0.242828C17.1615 0.242828 0.899902 16.5044 0.899902 36.5641C0.899902 56.6238 17.1615 72.8854 37.2212 72.8854ZM37.2253 49.581C44.4143 49.581 50.2421 43.7532 50.2421 36.5642C50.2421 29.3752 44.4143 23.5474 37.2253 23.5474C30.0364 23.5474 24.2085 29.3752 24.2085 36.5642C24.2085 43.7532 30.0364 49.581 37.2253 49.581Z" fill="black"/>
<path fill-rule="evenodd" clip-rule="evenodd" d="M113.374 72.8854C133.433 72.8854 149.695 56.6238 149.695 36.5641C149.695 16.5044 133.433 0.242859 113.374 0.242859C93.3138 0.242859 77.0522 16.5044 77.0522 36.5641C77.0522 56.6238 93.3138 72.8854 113.374 72.8854ZM113.378 49.5811C120.567 49.5811 126.395 43.7532 126.395 36.5642C126.395 29.3753 120.567 23.5474 113.378 23.5474C106.189 23.5474 100.361 29.3753 100.361 36.5642C100.361 43.7532 106.189 49.5811 113.378 49.5811Z" fill="black"/>
</svg>
