<svg width="481" height="226" viewBox="0 0 481 226" fill="none" xmlns="http://www.w3.org/2000/svg">
<path d="M37.2212 225.434C57.2809 225.434 73.5425 209.173 73.5425 189.113C73.5425 169.053 57.2809 152.792 37.2212 152.792C17.1615 152.792 0.899902 169.053 0.899902 189.113C0.899902 209.173 17.1615 225.434 37.2212 225.434Z" fill="black"/>
<path fill-rule="evenodd" clip-rule="evenodd" d="M40.8559 148.98C39.6604 149.099 38.4479 149.16 37.2212 149.16C17.1615 149.16 0.899902 132.898 0.899902 112.839C0.899902 92.7791 17.1615 76.5175 37.2212 76.5175C38.4479 76.5175 39.6604 76.5783 40.8559 76.6971V76.5175H113.498H113.501C133.561 76.5175 149.822 92.7791 149.822 112.839C149.822 132.898 133.561 149.16 113.501 149.16H113.498H40.8559V148.98Z" fill="black"/>
<path fill-rule="evenodd" clip-rule="evenodd" d="M149.695 170.715C149.695 160.685 141.564 152.555 131.534 152.555C121.504 152.555 113.374 160.685 113.374 170.715C113.374 180.745 105.243 188.876 95.2129 188.876C85.1831 188.876 77.0522 197.007 77.0522 207.037C77.0522 217.067 85.1831 225.197 95.213 225.197H113.374C133.433 225.197 149.695 208.936 149.695 188.876V170.715Z" fill="black"/>
<path fill-rule="evenodd" clip-rule="evenodd" d="M37.2212 72.8854C57.2809 72.8854 73.5425 56.6238 73.5425 36.5641C73.5425 16.5044 57.2809 0.242828 37.2212 0.242828C17.1615 0.242828 0.899902 16.5044 0.899902 36.5641C0.899902 56.6238 17.1615 72.8854 37.2212 72.8854ZM37.2253 49.581C44.4143 49.581 50.2421 43.7532 50.2421 36.5642C50.2421 29.3752 44.4143 23.5474 37.2253 23.5474C30.0364 23.5474 24.2085 29.3752 24.2085 36.5642C24.2085 43.7532 30.0364 49.581 37.2253 49.581Z" fill="black"/>
<path fill-rule="evenodd" clip-rule="evenodd" d="M113.374 72.8854C133.433 72.8854 149.695 56.6238 149.695 36.5641C149.695 16.5044 133.433 0.242859 113.374 0.242859C93.3138 0.242859 77.0522 16.5044 77.0522 36.5641C77.0522 56.6238 93.3138 72.8854 113.374 72.8854ZM113.378 49.5811C120.567 49.5811 126.395 43.7532 126.395 36.5642C126.395 29.3753 120.567 23.5474 113.378 23.5474C106.189 23.5474 100.361 29.3753 100.361 36.5642C100.361 43.7532 106.189 49.5811 113.378 49.5811Z" fill="black"/>
<path d="M230.411 169.465C231.187 169.465 231.783 169.853 232.201 170.628C232.618 171.404 232.827 172.388 232.827 173.58C232.827 175.071 232.618 176.234 232.201 177.069C231.783 177.845 231.127 178.381 230.233 178.679C226.654 179.932 222.718 180.648 218.424 180.826C217.231 185.776 214.965 189.772 211.625 192.814C208.345 195.855 204.707 197.376 200.712 197.376C194.688 197.376 190.305 195.08 187.561 190.488C184.818 185.896 183.446 179.246 183.446 170.539C183.446 162.845 184.401 154.496 186.309 145.491C188.217 136.426 190.991 128.732 194.628 122.411C198.326 116.029 202.709 112.839 207.779 112.839C210.522 112.839 212.729 114.032 214.399 116.417C216.068 118.743 216.903 121.785 216.903 125.542C216.903 130.432 215.979 135.293 214.13 140.123C212.281 144.954 209.21 150.023 204.916 155.331C208.912 155.629 212.162 157.299 214.667 160.341C217.172 163.323 218.663 167.02 219.14 171.433C221.943 171.254 225.283 170.658 229.159 169.644C229.517 169.525 229.934 169.465 230.411 169.465ZM205.721 121.695C204.528 121.695 203.216 123.484 201.785 127.063C200.413 130.581 199.131 135.382 197.938 141.465C196.746 147.548 195.851 154.198 195.255 161.414C199.191 154.198 202.322 147.846 204.648 142.36C207.033 136.813 208.226 131.893 208.226 127.599C208.226 125.691 207.987 124.23 207.51 123.216C207.093 122.202 206.496 121.695 205.721 121.695ZM201.069 187.894C202.918 187.894 204.558 187.118 205.99 185.568C207.421 184.017 208.375 181.781 208.852 178.858C207.003 177.606 205.572 175.966 204.558 173.938C203.604 171.911 203.127 169.764 203.127 167.497C203.127 166.662 203.246 165.529 203.485 164.098H203.216C200.771 164.098 198.714 165.32 197.044 167.766C195.434 170.151 194.628 173.372 194.628 177.427C194.628 180.826 195.255 183.421 196.507 185.21C197.819 186.999 199.34 187.894 201.069 187.894Z" fill="black"/>
<path d="M236.822 149.337C234.317 149.337 232.438 148.771 231.186 147.638C229.933 146.445 229.307 144.805 229.307 142.718C229.307 140.63 230.112 138.901 231.723 137.529C233.392 136.098 235.45 135.382 237.895 135.382C240.102 135.382 241.891 135.919 243.263 136.992C244.634 138.066 245.32 139.587 245.32 141.555C245.32 143.94 244.545 145.849 242.994 147.28C241.444 148.652 239.386 149.337 236.822 149.337ZM236.106 197.376C232.229 197.376 229.397 196.004 227.608 193.261C225.878 190.518 225.013 186.88 225.013 182.347C225.013 179.663 225.341 176.234 225.997 172.06C226.713 167.825 227.608 163.889 228.681 160.251C229.218 158.343 229.933 157.031 230.828 156.315C231.723 155.599 233.154 155.242 235.122 155.242C238.163 155.242 239.684 156.255 239.684 158.283C239.684 159.774 239.118 163.233 237.985 168.66C236.553 175.22 235.838 179.663 235.838 181.989C235.838 183.779 236.076 185.15 236.553 186.104C237.03 187.059 237.835 187.536 238.969 187.536C240.042 187.536 241.384 186.79 242.994 185.299C244.604 183.808 246.751 181.453 249.435 178.232C250.151 177.397 250.956 176.98 251.85 176.98C252.626 176.98 253.222 177.338 253.64 178.053C254.117 178.769 254.355 179.753 254.355 181.005C254.355 183.391 253.789 185.24 252.656 186.552C246.751 193.768 241.235 197.376 236.106 197.376Z" fill="black"/>
<path d="M287.016 176.98C287.791 176.98 288.387 177.338 288.805 178.053C289.282 178.769 289.52 179.753 289.52 181.005C289.52 183.391 288.954 185.24 287.821 186.552C285.256 189.713 282.453 192.307 279.412 194.335C276.37 196.362 272.881 197.376 268.945 197.376C256.779 197.376 250.696 188.818 250.696 171.702C250.696 169.078 250.785 166.424 250.964 163.74H247.475C245.686 163.74 244.464 163.412 243.808 162.756C243.211 162.1 242.913 161.056 242.913 159.625C242.913 156.285 244.255 154.615 246.939 154.615H252.038C253.052 148.055 254.602 142.062 256.69 136.634C258.777 131.207 261.282 126.884 264.204 123.663C267.186 120.443 270.377 118.832 273.776 118.832C276.281 118.832 278.249 119.936 279.68 122.142C281.111 124.349 281.827 127.122 281.827 130.462C281.827 139.706 277.951 147.757 270.198 154.615H280.217C281.171 154.615 281.857 154.824 282.274 155.242C282.692 155.659 282.901 156.434 282.901 157.568C282.901 161.683 279.531 163.74 272.792 163.74H261.878C261.759 166.722 261.699 169.048 261.699 170.718C261.699 176.92 262.415 181.274 263.846 183.779C265.337 186.283 267.663 187.536 270.824 187.536C273.388 187.536 275.655 186.76 277.623 185.21C279.591 183.659 281.917 181.333 284.6 178.232C285.316 177.397 286.121 176.98 287.016 176.98ZM271.361 127.42C270.466 127.42 269.452 128.553 268.319 130.82C267.246 133.026 266.202 136.128 265.188 140.123C264.234 144.059 263.429 148.443 262.773 153.274C266.291 150.232 268.915 146.833 270.645 143.075C272.434 139.259 273.329 135.8 273.329 132.698C273.329 129.18 272.673 127.42 271.361 127.42Z" fill="black"/>
<path d="M298.876 199.344C295.775 199.344 293.389 198.628 291.719 197.197C290.109 195.766 289.304 194.156 289.304 192.366C289.304 190.816 289.87 189.474 291.003 188.341C292.137 187.208 293.806 186.641 296.013 186.641C296.788 186.641 297.683 186.731 298.697 186.91C299.77 187.029 300.575 187.118 301.112 187.178C301.053 185.627 300.695 184.166 300.039 182.795C299.442 181.423 298.667 180.111 297.713 178.858C296.759 177.546 295.864 176.413 295.029 175.459C293.18 178.978 291.332 181.9 289.483 184.226C287.694 186.552 285.726 188.758 283.579 190.846C282.505 191.919 281.372 192.456 280.179 192.456C279.225 192.456 278.45 192.128 277.853 191.472C277.257 190.756 276.959 189.891 276.959 188.878C276.959 187.685 277.376 186.582 278.211 185.568L279.374 184.136C282.654 180.081 285.129 176.741 286.799 174.117C287.813 172.388 289.006 170.092 290.377 167.229C291.749 164.307 293.091 161.295 294.403 158.194C295.536 155.57 297.892 154.258 301.47 154.258C303.14 154.258 304.303 154.407 304.959 154.705C305.615 155.003 305.943 155.48 305.943 156.136C305.943 156.494 305.824 157.061 305.585 157.836C305.347 158.611 305.018 159.386 304.601 160.162C303.528 162.309 302.991 164.128 302.991 165.619C302.991 166.513 303.289 167.497 303.885 168.571C304.541 169.644 305.525 170.986 306.837 172.596C308.746 175.101 310.177 177.248 311.131 179.037C312.145 180.767 312.652 182.675 312.652 184.763C312.652 185.359 312.593 186.194 312.473 187.267C315.396 186.134 318.825 183.123 322.761 178.232C323.477 177.397 324.282 176.98 325.176 176.98C325.952 176.98 326.548 177.338 326.965 178.053C327.442 178.769 327.681 179.753 327.681 181.005C327.681 183.272 327.114 185.12 325.981 186.552C322.999 190.249 320.137 192.784 317.393 194.156C314.71 195.468 311.37 196.183 307.374 196.303C304.989 198.33 302.156 199.344 298.876 199.344Z" fill="black"/>
<path d="M385.828 176.98C386.603 176.98 387.199 177.338 387.617 178.053C388.094 178.769 388.333 179.753 388.333 181.005C388.333 183.391 387.766 185.24 386.633 186.552C384.068 189.713 381.265 192.307 378.224 194.335C375.242 196.362 371.843 197.376 368.026 197.376C363.97 197.376 360.72 195.915 358.275 192.993C355.83 190.011 354.16 185.985 353.265 180.916C351.237 181.453 349.09 181.721 346.824 181.721C344.856 181.721 342.679 181.572 340.294 181.274C341.129 185.031 341.815 189.235 342.351 193.887C342.888 198.539 343.156 202.356 343.156 205.338C343.156 211.779 342.113 216.699 340.025 220.098C337.938 223.498 335.195 225.197 331.795 225.197C327.501 225.197 324.43 222.156 322.581 216.073C320.792 209.99 319.898 200.805 319.898 188.52C319.898 177.069 321.12 165.47 323.565 153.721C326.07 141.912 329.469 132.162 333.763 124.468C338.117 116.715 342.888 112.839 348.077 112.839C350.88 112.839 353.056 114.091 354.607 116.596C356.217 119.101 357.022 122.47 357.022 126.705C357.022 140.72 348.643 155.987 331.885 172.507C331.288 178.351 330.99 183.48 330.99 187.894C330.99 194.036 331.199 200.328 331.616 206.769C332.034 213.27 332.72 216.52 333.674 216.52C335.463 216.52 336.358 213.419 336.358 207.216C336.358 202.565 336.03 198.062 335.374 193.708C334.777 189.355 333.942 184.763 332.869 179.932C332.809 179.157 333.048 178.173 333.585 176.98C334.181 175.787 334.897 174.743 335.732 173.849C336.566 172.954 337.312 172.507 337.968 172.507C338.743 172.507 339.966 172.567 341.636 172.686C343.544 172.805 344.975 172.865 345.93 172.865C348.077 172.865 350.283 172.567 352.55 171.97V171.702C352.55 164.426 353.474 156.136 355.323 146.833C357.231 137.529 360.004 129.538 363.642 122.858C367.34 116.179 371.723 112.839 376.792 112.839C379.655 112.839 381.892 114.181 383.502 116.864C385.172 119.488 386.007 123.275 386.007 128.225C386.007 133.056 385.112 138.543 383.323 144.686C381.534 150.828 378.939 156.733 375.54 162.398C372.141 168.004 368.145 172.507 363.553 175.906C363.791 180.141 364.418 183.152 365.431 184.941C366.445 186.671 367.936 187.536 369.904 187.536C372.349 187.536 374.496 186.85 376.345 185.478C378.194 184.047 380.55 181.632 383.412 178.232C384.128 177.397 384.933 176.98 385.828 176.98ZM346.198 121.695C345.125 121.695 343.783 123.514 342.172 127.152C340.622 130.79 339.071 135.621 337.521 141.644C335.97 147.608 334.628 153.93 333.495 160.609C338.266 155.182 341.934 149.546 344.498 143.702C347.063 137.797 348.375 132.281 348.434 127.152C348.434 123.514 347.689 121.695 346.198 121.695ZM374.824 121.695C373.572 121.695 372.111 123.932 370.441 128.404C368.831 132.818 367.37 138.424 366.058 145.222C364.746 152.021 363.94 158.671 363.642 165.171C366.624 162.13 369.159 158.432 371.246 154.079C373.333 149.665 374.854 145.222 375.808 140.75C376.822 136.217 377.329 132.132 377.329 128.494C377.329 123.961 376.494 121.695 374.824 121.695Z" fill="black"/>
<path d="M426.752 169.465C427.528 169.465 428.124 169.853 428.542 170.628C428.959 171.404 429.168 172.388 429.168 173.58C429.168 176.443 428.303 178.143 426.573 178.679C422.995 179.932 419.059 180.648 414.765 180.826C413.632 185.836 411.396 189.862 408.056 192.903C404.716 195.885 400.929 197.376 396.695 197.376C393.116 197.376 390.045 196.511 387.481 194.782C384.976 193.052 383.067 190.756 381.755 187.894C380.443 185.031 379.787 181.93 379.787 178.59C379.787 174.057 380.652 170.032 382.381 166.513C384.111 162.935 386.497 160.162 389.538 158.194C392.58 156.166 395.949 155.152 399.647 155.152C404.179 155.152 407.817 156.733 410.561 159.893C413.364 162.995 415.004 166.841 415.481 171.433C418.284 171.254 421.623 170.658 425.5 169.644C425.977 169.525 426.395 169.465 426.752 169.465ZM397.41 187.894C399.319 187.894 400.959 187.118 402.33 185.568C403.762 184.017 404.716 181.781 405.193 178.858C403.344 177.606 401.913 175.966 400.899 173.938C399.945 171.911 399.468 169.764 399.468 167.497C399.468 166.543 399.557 165.589 399.736 164.635H399.289C396.903 164.635 394.906 165.798 393.295 168.123C391.745 170.39 390.969 173.61 390.969 177.785C390.969 181.065 391.596 183.57 392.848 185.299C394.16 187.029 395.681 187.894 397.41 187.894Z" fill="black"/>
<path d="M475.948 155.152C479.228 155.152 480.869 156.196 480.869 158.283C480.869 158.999 480.63 159.983 480.153 161.235C475.322 172.507 470.76 181.602 466.466 188.52C464.319 191.919 462.381 194.245 460.651 195.497C458.922 196.75 456.954 197.376 454.747 197.376C452.361 197.376 450.572 196.452 449.38 194.603C448.246 192.754 447.531 189.713 447.233 185.478C447.113 183.928 446.994 181.602 446.875 178.501C445.026 183.629 443.326 187.566 441.776 190.309C440.285 192.993 438.794 194.841 437.303 195.855C435.871 196.869 434.142 197.376 432.114 197.376C429.669 197.376 427.731 196.422 426.299 194.513C424.928 192.605 424.063 189.593 423.705 185.478C422.99 177.129 422.632 169.823 422.632 163.561V160.43C422.691 158.402 423.198 157.031 424.153 156.315C425.107 155.54 426.657 155.152 428.804 155.152C430.355 155.152 431.488 155.51 432.204 156.226C432.979 156.882 433.367 158.015 433.367 159.625C433.367 166.483 433.784 175.399 434.619 186.373C436.587 182.198 438.406 178.202 440.076 174.386C441.746 170.569 443.684 165.678 445.891 159.714C446.547 157.925 447.322 156.733 448.217 156.136C449.171 155.48 450.274 155.152 451.526 155.152C453.196 155.152 454.449 155.51 455.284 156.226C456.119 156.882 456.536 158.015 456.536 159.625V173.491C456.536 179.455 456.566 183.749 456.626 186.373C459.369 181.602 461.605 177.457 463.335 173.938C465.124 170.42 467.122 165.678 469.329 159.714C469.985 157.925 470.849 156.733 471.923 156.136C472.996 155.48 474.338 155.152 475.948 155.152Z" fill="black"/>
</svg>
